<svg width="38" height="29" viewBox="0 0 38 29" fill="none" xmlns="http://www.w3.org/2000/svg">
<g clip-path="url(#clip0_101_12)">
<path d="M37.177 11.8762V12.9089C37.177 13.7644 36.4835 14.4579 35.628 14.4579H35.1116L33.4262 26.2557C33.2082 27.7819 31.901 28.9156 30.3593 28.9156H6.81772C5.27597 28.9156 3.96884 27.7819 3.75075 26.2557L2.06539 14.4579H1.54904C0.693519 14.4579 0 13.7644 0 12.9089V11.8762C0 11.0206 0.693519 10.3271 1.54904 10.3271H5.89546L12.7874 0.850801C13.4583 -0.0716539 14.75 -0.275676 15.6726 0.395253C16.5951 1.06618 16.799 2.35789 16.1281 3.28041L11.0032 10.3271H26.1738L21.0489 3.28034C20.378 2.35789 20.582 1.06612 21.5045 0.395189C22.4269 -0.27574 23.7187 -0.071783 24.3897 0.850736L31.2815 10.3271H35.628C36.4835 10.3271 37.177 11.0206 37.177 11.8762ZM20.1375 23.2358V16.0069C20.1375 15.1514 19.444 14.4579 18.5885 14.4579C17.733 14.4579 17.0395 15.1514 17.0395 16.0069V23.2358C17.0395 24.0913 17.733 24.7849 18.5885 24.7849C19.444 24.7849 20.1375 24.0913 20.1375 23.2358ZM27.3664 23.2358V16.0069C27.3664 15.1514 26.6729 14.4579 25.8174 14.4579C24.9618 14.4579 24.2683 15.1514 24.2683 16.0069V23.2358C24.2683 24.0913 24.9618 24.7849 25.8174 24.7849C26.6729 24.7849 27.3664 24.0913 27.3664 23.2358ZM12.9087 23.2358V16.0069C12.9087 15.1514 12.2152 14.4579 11.3596 14.4579C10.5041 14.4579 9.8106 15.1514 9.8106 16.0069V23.2358C9.8106 24.0913 10.5041 24.7849 11.3596 24.7849C12.2152 24.7849 12.9087 24.0913 12.9087 23.2358Z" fill="#7A7D98" fill-opacity="0.6"/>
</g>
<defs>
<clipPath id="clip0_101_12">
<rect width="37.177" height="28.9156" fill="white"/>
</clipPath>
</defs>
</svg>
