<svg width="18" height="18" viewBox="0 0 18 18" fill="none" xmlns="http://www.w3.org/2000/svg">
<g clip-path="url(#clip0_101_6)">
<path d="M17.6563 15.4781L14.1705 11.9923C14.0131 11.835 13.7999 11.7476 13.5761 11.7476H13.0062C13.9712 10.5134 14.5446 8.961 14.5446 7.27229C14.5446 3.25505 11.2895 0 7.27229 0C3.25505 0 0 3.25505 0 7.27229C0 11.2895 3.25505 14.5446 7.27229 14.5446C8.961 14.5446 10.5134 13.9712 11.7476 13.0062V13.5761C11.7476 13.7999 11.835 14.0132 11.9923 14.1705L15.4781 17.6563C15.8067 17.9849 16.3382 17.9849 16.6633 17.6563L17.6528 16.6668C17.9814 16.3382 17.9814 15.8068 17.6563 15.4781ZM7.27229 11.7476C4.80041 11.7476 2.79704 9.74767 2.79704 7.27229C2.79704 4.80041 4.79692 2.79704 7.27229 2.79704C9.74417 2.79704 11.7476 4.79692 11.7476 7.27229C11.7476 9.74417 9.74767 11.7476 7.27229 11.7476Z" fill="#7A7D98" fill-opacity="0.53"/>
</g>
<defs>
<clipPath id="clip0_101_6">
<rect width="17.8997" height="17.9028" fill="white"/>
</clipPath>
</defs>
</svg>
