<svg width="26" height="29" viewBox="0 0 26 29" fill="none" xmlns="http://www.w3.org/2000/svg">
<g clip-path="url(#clip0_101_9)">
<path d="M12.6049 14.4056C16.5834 14.4056 19.8077 11.1812 19.8077 7.20282C19.8077 3.22439 16.5834 0 12.6049 0C8.6265 0 5.40211 3.22439 5.40211 7.20282C5.40211 11.1812 8.6265 14.4056 12.6049 14.4056ZM17.6469 16.2063H16.7072C15.4579 16.7803 14.068 17.1067 12.6049 17.1067C11.1419 17.1067 9.75757 16.7803 8.5027 16.2063H7.56296C3.38757 16.2063 0 19.5939 0 23.7693V26.1102C0 27.6014 1.20985 28.8113 2.70106 28.8113H22.5088C24 28.8113 25.2099 27.6014 25.2099 26.1102V23.7693C25.2099 19.5939 21.8223 16.2063 17.6469 16.2063Z" fill="#7A7D98" fill-opacity="0.6"/>
</g>
<defs>
<clipPath id="clip0_101_9">
<rect width="25.2099" height="28.8113" fill="white"/>
</clipPath>
</defs>
</svg>
