<svg width="49" height="13" viewBox="0 0 49 13" fill="none" xmlns="http://www.w3.org/2000/svg">
<path d="M48.113 4.76468H44.2686V0.920288C44.2686 0.448549 43.886 0.065979 43.4143 0.065979H42.56C42.0882 0.065979 41.7057 0.448549 41.7057 0.920288V4.76468H37.8613C37.3895 4.76468 37.007 5.14725 37.007 5.61899V6.4733C37.007 6.94503 37.3895 7.3276 37.8613 7.3276H41.7057V11.172C41.7057 11.6437 42.0882 12.0263 42.56 12.0263H43.4143C43.886 12.0263 44.2686 11.6437 44.2686 11.172V7.3276H48.113C48.5847 7.3276 48.9673 6.94503 48.9673 6.4733V5.61899C48.9673 5.14725 48.5847 4.76468 48.113 4.76468Z" fill="black" fill-opacity="0.5"/>
<path d="M11.7358 5.34631H1.55202C1.08341 5.34631 0.703369 5.72635 0.703369 6.19496V7.04362C0.703369 7.51223 1.08341 7.89227 1.55202 7.89227H11.7358C12.2044 7.89227 12.5845 7.51223 12.5845 7.04362V6.19496C12.5845 5.72635 12.2044 5.34631 11.7358 5.34631Z" fill="black" fill-opacity="0.5"/>
</svg>
