<svg width="49" height="13" viewBox="0 0 49 13" fill="none" xmlns="http://www.w3.org/2000/svg">
<path d="M48.113 4.76462H44.2686V0.920227C44.2686 0.448488 43.886 0.065918 43.4143 0.065918H42.56C42.0882 0.065918 41.7057 0.448488 41.7057 0.920227V4.76462H37.8613C37.3895 4.76462 37.007 5.14719 37.007 5.61893V6.47323C37.007 6.94497 37.3895 7.32754 37.8613 7.32754H41.7057V11.1719C41.7057 11.6437 42.0882 12.0262 42.56 12.0262H43.4143C43.886 12.0262 44.2686 11.6437 44.2686 11.1719V7.32754H48.113C48.5847 7.32754 48.9673 6.94497 48.9673 6.47323V5.61893C48.9673 5.14719 48.5847 4.76462 48.113 4.76462Z" fill="black" fill-opacity="0.5"/>
<path d="M11.7358 5.34619H1.55202C1.08341 5.34619 0.703369 5.72623 0.703369 6.19484V7.04349C0.703369 7.51211 1.08341 7.89215 1.55202 7.89215H11.7358C12.2044 7.89215 12.5845 7.51211 12.5845 7.04349V6.19484C12.5845 5.72623 12.2044 5.34619 11.7358 5.34619Z" fill="black" fill-opacity="0.5"/>
</svg>
